<mxfile host="Electron" modified="2020-06-28T12:46:17.264Z" agent="Mozilla/5.0 (X11; Linux x86_64) AppleWebKit/537.36 (KHTML, like Gecko) draw.io/12.3.2 Chrome/78.0.3904.113 Electron/7.1.2 Safari/537.36" etag="Zj8mv_8swjzGz6QOzO-H" version="12.3.2" type="device" pages="1">
  <diagram id="4ewG31qNi5Xe1Q1aFcIQ" name="Page-1">
    <mxGraphModel dx="653" dy="403" grid="1" gridSize="10" guides="0" tooltips="1" connect="1" arrows="1" fold="1" page="1" pageScale="1" pageWidth="827" pageHeight="1169" math="0" shadow="0">
      <root>
        <mxCell id="0"/>
        <mxCell id="1" parent="0"/>
        <mxCell id="j8MNUE_WcbqGF29-70E0-1" value="- int &lt;b&gt;session&lt;/b&gt;" style="rounded=0;whiteSpace=wrap;html=1;" vertex="1" parent="1">
          <mxGeometry x="80" y="80" width="80" height="20" as="geometry"/>
        </mxCell>
        <mxCell id="j8MNUE_WcbqGF29-70E0-2" value="bdaddr_t src" style="rounded=0;whiteSpace=wrap;html=1;" vertex="1" parent="1">
          <mxGeometry x="160" y="80" width="80" height="20" as="geometry"/>
        </mxCell>
        <mxCell id="j8MNUE_WcbqGF29-70E0-3" value="bdaddr_t *tgt" style="rounded=0;whiteSpace=wrap;html=1;" vertex="1" parent="1">
          <mxGeometry x="240" y="80" width="80" height="20" as="geometry"/>
        </mxCell>
        <mxCell id="j8MNUE_WcbqGF29-70E0-4" value="int input" style="rounded=0;whiteSpace=wrap;html=1;" vertex="1" parent="1">
          <mxGeometry x="320" y="80" width="60" height="20" as="geometry"/>
        </mxCell>
        <mxCell id="j8MNUE_WcbqGF29-70E0-5" value="int sintr" style="rounded=0;whiteSpace=wrap;html=1;" vertex="1" parent="1">
          <mxGeometry x="380" y="80" width="60" height="20" as="geometry"/>
        </mxCell>
        <mxCell id="j8MNUE_WcbqGF29-70E0-6" value="int scontrol" style="rounded=0;whiteSpace=wrap;html=1;" vertex="1" parent="1">
          <mxGeometry x="440" y="80" width="80" height="20" as="geometry"/>
        </mxCell>
      </root>
    </mxGraphModel>
  </diagram>
</mxfile>
